{"title":"Barely.Lethal.2015.1080p.BluRay.H264.AAC-RARBG","uid":12151900,"size":2020305837,"categoryP":"video","categoryS":"hd___movies","magnet":"?xt=urn:btih:7f5ff9eb4253315cd34afe09087c951d10f53e85&amp;dn=Barely.Lethal.2015.1080p.BluRay.H264.AAC-RARBG&amp;tr=udp%3A%2F%2Ftracker.openbittorrent.com%3A80&amp;tr=udp%3A%2F%2Fopen.demonii.com%3A1337&amp;tr=udp%3A%2F%2Ftracker.coppersurfer.tk%3A6969&amp;tr=udp%3A%2F%2Fexodus.desync.com%3A6969","seeders":0,"leechers":1,"uploader":"vickey1992","files":4,"time":1437657775,"description":"Video\nID                                       : 1\nFormat                                   : AVC\nFormat/Info                              : Advanced Video Codec\nFormat profile                           : &lt;a class=&quot;__cf_email__&quot; href=&quot;/cdn-cgi/l/email-protection&quot; data-cfemail=&quot;81c9e8e6e9c1cdb5afb0&quot;&gt;[email&amp;#160;protected]&lt;/a&gt;&lt;script data-cfhash='f9e31' type=&quot;text/javascript&quot;&gt;\n/* &lt;![CDATA[ */!function(){try{var t=&quot;currentScript&quot;in document?document.currentScript:function(){for(var t=document.getElementsByTagName(&quot;script&quot;),e=t.length;e--;)if(t[e].getAttribute(&quot;data-cfhash&quot;))return t[e]}();if(t&amp;&amp;t.previousSibling){var e,r,n,i,c=t.previousSibling,a=c.getAttribute(&quot;data-cfemail&quot;);if(a){for(e=&quot;&quot;,r=parseInt(a.substr(0,2),16),n=2;a.length-n;n+=2)i=parseInt(a.substr(n,2),16)^r,e+=String.fromCharCode(i);e=document.createTextNode(e),c.parentNode.replaceChild(e,c)}t.parentNode.removeChild(t);}}catch(u){}}()/* ]]&gt; */&lt;/script&gt;\nFormat settings, CABAC                   : Yes\nFormat settings, ReFrames                : 4 frames\nCodec ID                                 : avc1\nCodec ID/Info                            : Advanced Video Coding\nDuration                                 : 1h 38mn\nBit rate                                 : 2 500 Kbps\nWidth                                    : 1 920 pixels\nHeight                                   : 1 036 pixels\nDisplay aspect ratio                     : 1.85:1\nFrame rate mode                          : Constant\nFrame rate                               : 23.976 fps\nColor space                              : YUV\nChroma subsampling                       : 4:2:0\nBit depth                                : 8 bits\nScan type                                : Progressive\nBits/(Pixel*Frame)                       : 0.052\nStream size                              : 1.72 GiB (92%)\nWriting library                          : x264 core 144 r2525M 40bb568\nEncoding settings                        : cabac=1 / ref=4 / deblock=1:-1:-1 / analyse=0x3:0x113 / me=umh / subme=9 / psy=1 / psy_rd=1.00:0.15 / mixed_ref=1 / me_range=24 / chroma_me=1 / trellis=2 / 8x8dct=1 / cqm=0 / deadzone=21,11 / fast_pskip=1 / chroma_qp_offset=-3 / threads=32 / lookahead_threads=4 / sliced_threads=0 / nr=0 / decimate=1 / interlaced=0 / bluray_compat=0 / constrained_intra=0 / bframes=3 / b_pyramid=2 / b_adapt=1 / b_bias=0 / direct=1 / weightb=1 / open_gop=0 / weightp=2 / keyint=250 / keyint_min=25 / scenecut=40 / intra_refresh=0 / rc_lookahead=50 / rc=2pass / mbtree=1 / bitrate=2500 / ratetol=1.0 / qcomp=0.60 / qpmin=0 / qpmax=69 / qpstep=4 / cplxblur=20.0 / qblur=0.5 / vbv_maxrate=31250 / vbv_bufsize=31250 / nal_hrd=none / filler=0 / ip_ratio=1.40 / aq=3:1.00\nEncoded date                             : UTC 1904-01-01 00:00:00\nTagged date                              : UTC 1904-01-01 00:00:00\n\nAudio\nID                                       : 2\nFormat                                   : AAC\nFormat/Info                              : Advanced Audio Codec\nFormat profile                           : LC\nCodec ID                                 : 40\nDuration                                 : 1h 38mn\nBit rate mode                            : Constant\nBit rate                                 : 224 Kbps\nChannel(s)                               : 2 channels\nChannel(s)_Original                      : 6 channels\nChannel positions                        : Front: L C R, Side: L R, LFE\nSampling rate                            : 48.0 KHz\nCompression mode                         : Lossy\nStream size                              : 158 MiB (8%)\nLanguage                                 : English\nEncoded date                             : UTC 1904-01-01 00:00:00\nTagged date                              : UTC 1904-01-01 00:00:00\n\nMenu #1\nID                                       : 3\nCodec ID                                 : text\nDuration                                 : 1h 38mn\nLanguage                                 : English\nEncoded date                             : UTC 1904-01-01 00:00:00\nTagged date                              : UTC 1904-01-01 00:00:00\nBit rate mode                            : CBR\n00:00:00.000                             : 00:00:00.000\n00:03:36.801                             : 00:03:36.758\n00:07:45.174                             : 00:07:45.131\n00:12:12.483                             : 00:12:12.440\n00:17:14.785                             : 00:17:14.742\n00:27:52.964                             : 00:27:52.921\n00:36:54.172                             : 00:36:54.129\n00:44:02.016                             : 00:44:01.973\n00:52:47.249                             : 00:52:47.206\n01:01:20.678                             : 01:01:20.635\n01:08:45.414                             : 01:08:45.371\n01:12:53.329                             : 01:12:53.286\n01:17:39.990                             : 01:17:39.947\n01:24:59.763                             : 01:24:59.720\n01:30:09.656                             : 01:30:09.613\n01:33:15.258                             : 01:33:15.215\n\nMenu #2\n00:00:00.043                             : 00:00:00.000\n00:03:36.801                             : 00:03:36.758\n00:07:45.174                             : 00:07:45.131\n00:12:12.483                             : 00:12:12.440\n00:17:14.785                             : 00:17:14.742\n00:27:52.964                             : 00:27:52.921\n00:36:54.172                             : 00:36:54.129\n00:44:02.016                             : 00:44:01.973\n00:52:47.249                             : 00:52:47.206\n01:01:20.678                             : 01:01:20.635\n01:08:45.414                             : 01:08:45.371\n01:12:53.329                             : 01:12:53.286\n01:17:39.990                             : 01:17:39.947\n01:24:59.763                             : 01:24:59.720\n01:30:09.656                             : 01:30:09.613\n01:33:15.258                             : 01:33:15.215","torrent":{"xt":"urn:btih:7f5ff9eb4253315cd34afe09087c951d10f53e85","amp;dn":"Barely.Lethal.2015.1080p.BluRay.H264.AAC-RARBG","amp;tr":["udp%3A%2F%2Ftracker.openbittorrent.com%3A80","udp%3A%2F%2Fopen.demonii.com%3A1337","udp%3A%2F%2Ftracker.coppersurfer.tk%3A6969","udp%3A%2F%2Fexodus.desync.com%3A6969"],"infoHash":"7f5ff9eb4253315cd34afe09087c951d10f53e85","infoHashBuffer":{"type":"Buffer","data":[127,95,249,235,66,83,49,92,211,74,254,9,8,124,149,29,16,245,62,133]},"announce":[],"urlList":[]}}